<svg id="visual" viewBox="0 0 900 600" width="900" height="600" xmlns="http://www.w3.org/2000/svg" xmlns:xlink="http://www.w3.org/1999/xlink" version="1.1"><g stroke-width="1" stroke-linejoin="bevel"><path d="M422 340.9L388 261.1L380 332.9Z" fill="#006b71" stroke="#006b71"></path><path d="M422 340.9L439 246.1L388 261.1Z" fill="#007975" stroke="#007975"></path><path d="M329 183.4L289 282.1L388 261.1Z" fill="#004355" stroke="#004355"></path><path d="M388 261.1L289 282.1L380 332.9Z" fill="#007975" stroke="#007975"></path><path d="M545 278.1L459 179.4L439 246.1Z" fill="#013648" stroke="#013648"></path><path d="M439 246.1L459 179.4L388 261.1Z" fill="#001122" stroke="#001122"></path><path d="M349 423.6L468 416.6L422 340.9Z" fill="#001122" stroke="#001122"></path><path d="M422 340.9L545 278.1L439 246.1Z" fill="#006b71" stroke="#006b71"></path><path d="M349 423.6L422 340.9L380 332.9Z" fill="#005e6a" stroke="#005e6a"></path><path d="M468 416.6L526 360.9L422 340.9Z" fill="#001122" stroke="#001122"></path><path d="M272 331.9L349 423.6L380 332.9Z" fill="#009473" stroke="#009473"></path><path d="M526 360.9L545 278.1L422 340.9Z" fill="#001122" stroke="#001122"></path><path d="M289 282.1L272 331.9L380 332.9Z" fill="#008776" stroke="#008776"></path><path d="M459 179.4L329 183.4L388 261.1Z" fill="#009473" stroke="#009473"></path><path d="M468 416.6L546 398.6L526 360.9Z" fill="#008776" stroke="#008776"></path><path d="M526 360.9L625 357.9L545 278.1Z" fill="#031d2f" stroke="#031d2f"></path><path d="M272 331.9L278 424.6L349 423.6Z" fill="#031d2f" stroke="#031d2f"></path><path d="M286 69.7L269 170.4L329 183.4Z" fill="#004355" stroke="#004355"></path><path d="M329 183.4L269 170.4L289 282.1Z" fill="#006b71" stroke="#006b71"></path><path d="M201 254.1L210 351.9L272 331.9Z" fill="#03293c" stroke="#03293c"></path><path d="M272 491.3L371 487.3L349 423.6Z" fill="#005060" stroke="#005060"></path><path d="M349 423.6L371 487.3L468 416.6Z" fill="#004355" stroke="#004355"></path><path d="M468 416.6L532 501.3L546 398.6Z" fill="#03293c" stroke="#03293c"></path><path d="M201 254.1L272 331.9L289 282.1Z" fill="#008776" stroke="#008776"></path><path d="M272 331.9L210 351.9L278 424.6Z" fill="#001122" stroke="#001122"></path><path d="M371 487.3L425 509.3L468 416.6Z" fill="#006b71" stroke="#006b71"></path><path d="M545 278.1L569 162.4L459 179.4Z" fill="#005060" stroke="#005060"></path><path d="M459 179.4L420 64.7L329 183.4Z" fill="#031d2f" stroke="#031d2f"></path><path d="M651 287.1L569 162.4L545 278.1Z" fill="#006b71" stroke="#006b71"></path><path d="M269 170.4L201 254.1L289 282.1Z" fill="#007975" stroke="#007975"></path><path d="M618 456.6L625 357.9L546 398.6Z" fill="#005060" stroke="#005060"></path><path d="M546 398.6L625 357.9L526 360.9Z" fill="#03293c" stroke="#03293c"></path><path d="M166 406.6L272 491.3L278 424.6Z" fill="#009473" stroke="#009473"></path><path d="M278 424.6L272 491.3L349 423.6Z" fill="#008776" stroke="#008776"></path><path d="M334 600L432 600L425 509.3Z" fill="#006b71" stroke="#006b71"></path><path d="M555 96.7L420 64.7L459 179.4Z" fill="#013648" stroke="#013648"></path><path d="M420 64.7L350 70.7L329 183.4Z" fill="#001122" stroke="#001122"></path><path d="M425 509.3L532 501.3L468 416.6Z" fill="#008776" stroke="#008776"></path><path d="M625 357.9L651 287.1L545 278.1Z" fill="#006b71" stroke="#006b71"></path><path d="M628 153.4L555 96.7L569 162.4Z" fill="#013648" stroke="#013648"></path><path d="M569 162.4L555 96.7L459 179.4Z" fill="#03293c" stroke="#03293c"></path><path d="M331 0L286 69.7L350 70.7Z" fill="#005e6a" stroke="#005e6a"></path><path d="M350 70.7L286 69.7L329 183.4Z" fill="#008776" stroke="#008776"></path><path d="M269 170.4L180 156.4L201 254.1Z" fill="#005e6a" stroke="#005e6a"></path><path d="M532 501.3L618 456.6L546 398.6Z" fill="#006b71" stroke="#006b71"></path><path d="M746 370.9L715 246.1L651 287.1Z" fill="#031d2f" stroke="#031d2f"></path><path d="M651 287.1L628 153.4L569 162.4Z" fill="#013648" stroke="#013648"></path><path d="M112 335.9L166 406.6L210 351.9Z" fill="#03293c" stroke="#03293c"></path><path d="M210 351.9L166 406.6L278 424.6Z" fill="#013648" stroke="#013648"></path><path d="M197 68.7L180 156.4L269 170.4Z" fill="#009473" stroke="#009473"></path><path d="M201 254.1L112 335.9L210 351.9Z" fill="#009473" stroke="#009473"></path><path d="M71 268.1L112 335.9L201 254.1Z" fill="#001122" stroke="#001122"></path><path d="M334 600L425 509.3L371 487.3Z" fill="#031d2f" stroke="#031d2f"></path><path d="M425 509.3L519 600L532 501.3Z" fill="#004355" stroke="#004355"></path><path d="M532 501.3L631 534.3L618 456.6Z" fill="#005060" stroke="#005060"></path><path d="M555 96.7L468 0L420 64.7Z" fill="#03293c" stroke="#03293c"></path><path d="M420 64.7L331 0L350 70.7Z" fill="#031d2f" stroke="#031d2f"></path><path d="M527 0L468 0L555 96.7Z" fill="#004355" stroke="#004355"></path><path d="M272 491.3L334 600L371 487.3Z" fill="#008776" stroke="#008776"></path><path d="M268 600L334 600L272 491.3Z" fill="#004355" stroke="#004355"></path><path d="M468 0L331 0L420 64.7Z" fill="#03293c" stroke="#03293c"></path><path d="M286 69.7L197 68.7L269 170.4Z" fill="#006b71" stroke="#006b71"></path><path d="M651 287.1L715 246.1L628 153.4Z" fill="#001122" stroke="#001122"></path><path d="M746 370.9L651 287.1L625 357.9Z" fill="#008776" stroke="#008776"></path><path d="M295 0L197 68.7L286 69.7Z" fill="#001122" stroke="#001122"></path><path d="M81 195.4L71 268.1L201 254.1Z" fill="#001122" stroke="#001122"></path><path d="M432 600L519 600L425 509.3Z" fill="#009473" stroke="#009473"></path><path d="M331 0L295 0L286 69.7Z" fill="#008776" stroke="#008776"></path><path d="M629 60.7L555 96.7L628 153.4Z" fill="#013648" stroke="#013648"></path><path d="M606 0L527 0L555 96.7Z" fill="#009473" stroke="#009473"></path><path d="M519 600L631 534.3L532 501.3Z" fill="#03293c" stroke="#03293c"></path><path d="M618 456.6L722 418.6L625 357.9Z" fill="#031d2f" stroke="#031d2f"></path><path d="M59 453.6L163 512.3L166 406.6Z" fill="#001122" stroke="#001122"></path><path d="M166 406.6L163 512.3L272 491.3Z" fill="#031d2f" stroke="#031d2f"></path><path d="M719 108.7L629 60.7L628 153.4Z" fill="#008776" stroke="#008776"></path><path d="M163 512.3L268 600L272 491.3Z" fill="#03293c" stroke="#03293c"></path><path d="M725 498.3L722 418.6L618 456.6Z" fill="#006b71" stroke="#006b71"></path><path d="M81 195.4L201 254.1L180 156.4Z" fill="#005e6a" stroke="#005e6a"></path><path d="M112 335.9L59 453.6L166 406.6Z" fill="#03293c" stroke="#03293c"></path><path d="M86 65.7L81 195.4L180 156.4Z" fill="#001122" stroke="#001122"></path><path d="M722 418.6L746 370.9L625 357.9Z" fill="#005e6a" stroke="#005e6a"></path><path d="M750 0L606 0L629 60.7Z" fill="#001122" stroke="#001122"></path><path d="M629 60.7L606 0L555 96.7Z" fill="#009473" stroke="#009473"></path><path d="M790 254.1L748 183.4L715 246.1Z" fill="#001122" stroke="#001122"></path><path d="M715 246.1L748 183.4L628 153.4Z" fill="#031d2f" stroke="#031d2f"></path><path d="M748 183.4L719 108.7L628 153.4Z" fill="#013648" stroke="#013648"></path><path d="M722 418.6L782 428.6L746 370.9Z" fill="#03293c" stroke="#03293c"></path><path d="M631 534.3L725 498.3L618 456.6Z" fill="#004355" stroke="#004355"></path><path d="M723 600L725 498.3L631 534.3Z" fill="#005e6a" stroke="#005e6a"></path><path d="M0 420.6L59 453.6L112 335.9Z" fill="#006b71" stroke="#006b71"></path><path d="M163 512.3L160 600L268 600Z" fill="#031d2f" stroke="#031d2f"></path><path d="M295 0L171 0L197 68.7Z" fill="#009473" stroke="#009473"></path><path d="M197 68.7L86 65.7L180 156.4Z" fill="#03293c" stroke="#03293c"></path><path d="M746 370.9L790 254.1L715 246.1Z" fill="#004355" stroke="#004355"></path><path d="M748 183.4L779 115.7L719 108.7Z" fill="#031d2f" stroke="#031d2f"></path><path d="M812 327.9L790 254.1L746 370.9Z" fill="#009473" stroke="#009473"></path><path d="M519 600L653 600L631 534.3Z" fill="#008776" stroke="#008776"></path><path d="M94 600L160 600L163 512.3Z" fill="#009473" stroke="#009473"></path><path d="M823 495.3L782 428.6L725 498.3Z" fill="#008776" stroke="#008776"></path><path d="M725 498.3L782 428.6L722 418.6Z" fill="#007975" stroke="#007975"></path><path d="M171 0L86 65.7L197 68.7Z" fill="#006b71" stroke="#006b71"></path><path d="M0 239.1L0 339.9L71 268.1Z" fill="#008776" stroke="#008776"></path><path d="M782 428.6L812 327.9L746 370.9Z" fill="#006b71" stroke="#006b71"></path><path d="M71 268.1L0 339.9L112 335.9Z" fill="#031d2f" stroke="#031d2f"></path><path d="M0 239.1L71 268.1L81 195.4Z" fill="#031d2f" stroke="#031d2f"></path><path d="M0 181.4L0 239.1L81 195.4Z" fill="#03293c" stroke="#03293c"></path><path d="M59 453.6L70 538.3L163 512.3Z" fill="#006b71" stroke="#006b71"></path><path d="M0 521.3L70 538.3L59 453.6Z" fill="#007975" stroke="#007975"></path><path d="M813 184.4L748 183.4L790 254.1Z" fill="#008776" stroke="#008776"></path><path d="M813 184.4L779 115.7L748 183.4Z" fill="#008776" stroke="#008776"></path><path d="M719 108.7L750 0L629 60.7Z" fill="#006b71" stroke="#006b71"></path><path d="M900 247.1L813 184.4L790 254.1Z" fill="#005060" stroke="#005060"></path><path d="M0 84.7L0 181.4L81 195.4Z" fill="#005060" stroke="#005060"></path><path d="M0 339.9L0 420.6L112 335.9Z" fill="#001122" stroke="#001122"></path><path d="M171 0L96 0L86 65.7Z" fill="#007975" stroke="#007975"></path><path d="M86 65.7L0 84.7L81 195.4Z" fill="#03293c" stroke="#03293c"></path><path d="M0 600L94 600L70 538.3Z" fill="#007975" stroke="#007975"></path><path d="M70 538.3L94 600L163 512.3Z" fill="#005060" stroke="#005060"></path><path d="M653 600L723 600L631 534.3Z" fill="#001122" stroke="#001122"></path><path d="M779 115.7L750 0L719 108.7Z" fill="#008776" stroke="#008776"></path><path d="M810 0L750 0L779 115.7Z" fill="#009473" stroke="#009473"></path><path d="M900 419.6L900 321.9L812 327.9Z" fill="#013648" stroke="#013648"></path><path d="M812 327.9L900 247.1L790 254.1Z" fill="#031d2f" stroke="#031d2f"></path><path d="M808 600L823 495.3L725 498.3Z" fill="#005e6a" stroke="#005e6a"></path><path d="M0 0L0 84.7L86 65.7Z" fill="#031d2f" stroke="#031d2f"></path><path d="M0 420.6L0 521.3L59 453.6Z" fill="#03293c" stroke="#03293c"></path><path d="M900 419.6L812 327.9L782 428.6Z" fill="#008776" stroke="#008776"></path><path d="M900 114.7L810 0L779 115.7Z" fill="#03293c" stroke="#03293c"></path><path d="M900 321.9L900 247.1L812 327.9Z" fill="#001122" stroke="#001122"></path><path d="M723 600L808 600L725 498.3Z" fill="#005060" stroke="#005060"></path><path d="M823 495.3L900 419.6L782 428.6Z" fill="#013648" stroke="#013648"></path><path d="M900 114.7L779 115.7L813 184.4Z" fill="#004355" stroke="#004355"></path><path d="M96 0L0 0L86 65.7Z" fill="#001122" stroke="#001122"></path><path d="M900 519.3L900 419.6L823 495.3Z" fill="#009473" stroke="#009473"></path><path d="M0 521.3L0 600L70 538.3Z" fill="#013648" stroke="#013648"></path><path d="M900 247.1L900 161.4L813 184.4Z" fill="#009473" stroke="#009473"></path><path d="M900 161.4L900 114.7L813 184.4Z" fill="#031d2f" stroke="#031d2f"></path><path d="M808 600L900 519.3L823 495.3Z" fill="#007975" stroke="#007975"></path><path d="M900 114.7L900 0L810 0Z" fill="#007975" stroke="#007975"></path><path d="M808 600L900 600L900 519.3Z" fill="#005e6a" stroke="#005e6a"></path></g></svg>